<svg xmlns="http://www.w3.org/2000/svg" xmlns:xlink="http://www.w3.org/1999/xlink" fill="none" version="1.1" width="19.463451385498047" height="20" viewBox="0 0 19.463451385498047 20"><g><path d="M8.19733,0L11.3364,0.00471595C12.3111,0.00634012,13.1007,0.796215,13.102,1.77086L13.1032,2.28255C13.7112,2.53489,14.2873,2.85842,14.8192,3.24638L15.2395,3.00469C16.0843,2.51856,17.1631,2.80751,17.6517,3.65078L19.2251,6.3672C19.6936,7.17615,19.4516,8.21,18.6728,8.72697L18.5767,8.78592L18.1546,9.02939C18.2271,9.69906,18.2183,10.3793,18.1233,11.0555L18.4216,11.2282C19.2327,11.6964,19.5382,12.7155,19.1184,13.5526L19.0695,13.644L17.5957,16.1965C17.1276,17.0076,16.1084,17.3131,15.2713,16.8933L15.1794,16.8438L14.772,16.608C14.2598,16.9766,13.707,17.2851,13.1244,17.5276L13.1244,18.2291C13.1256,19.1637,12.3994,19.9379,11.4667,19.9965L11.3541,20L8.21501,19.9953C7.2406,19.9937,6.45108,19.2041,6.44946,18.2297L6.44769,17.3838C5.96121,17.1554,5.49788,16.8806,5.06413,16.5632L4.31193,16.9959C3.46703,17.4819,2.38817,17.1927,1.89969,16.3492L0.326312,13.6334C-0.142566,12.8243,0.0994695,11.79,0.878675,11.273L0.974763,11.2141L1.73994,10.7737C1.68099,10.2137,1.67804,9.64719,1.73463,9.08185L0.885159,8.5908C0.073917,8.12287,-0.231879,7.10363,0.187781,6.2664L0.2373,6.17502L1.71105,3.62248C2.17918,2.81146,3.19837,2.50593,4.03545,2.92569L4.12683,2.97521L4.86724,3.4026C5.34978,3.02634,5.87275,2.70505,6.42647,2.44466L6.42647,1.77145C6.42495,0.836653,7.15119,0.0621157,8.08415,0.00353675L8.19733,0L8.19733,0ZM8.19497,1.7685L8.19674,3.56648L7.18044,4.04457C6.74539,4.24912,6.33451,4.50143,5.95605,4.79677L5.01638,5.53011L3.28738,4.53149L3.24317,4.50673L1.76941,7.05927L3.60866,8.12097L3.49429,9.25811C3.45008,9.69965,3.45185,10.1453,3.49842,10.5868L3.61986,11.7317L1.85725,12.7468L3.43004,15.4626L5.18027,14.4563L6.10873,15.136C6.45055,15.3864,6.81578,15.6032,7.19931,15.7833L8.21443,16.2602L8.21797,18.2268L11.3565,18.2315L11.3547,16.348L12.4453,15.8941C12.9028,15.7039,13.3369,15.4618,13.7392,15.1726L14.6671,14.5058L16.0642,15.3123L17.5368,12.7592L16.2069,11.9904L16.3719,10.8109C16.4456,10.2833,16.4539,9.74917,16.3967,9.2192L16.2729,8.0738L17.6948,7.25322L16.1214,4.53739L14.7066,5.35267L13.7775,4.67533C13.3583,4.36959,12.9044,4.11453,12.4252,3.91546L11.337,3.46391L11.3335,1.77322L8.19497,1.7685ZM11.7149,6.84528C13.4061,7.82341,13.9859,9.98631,13.0106,11.6792C12.0356,13.3717,9.8722,13.9516,8.18142,12.9737C6.49038,11.9954,5.91089,9.83256,6.88628,8.13983C7.86123,6.44772,10.0242,5.86782,11.7149,6.84528ZM8.4178,9.0229C7.92965,9.87034,8.21977,10.953,9.06626,11.4428C9.91078,11.9316,10.9917,11.6418,11.4785,10.7961C11.9464,9.98368,11.701,8.94738,10.9185,8.43104L10.83,8.37622L10.7387,8.32729C9.90298,7.90706,8.88458,8.2123,8.4178,9.0229Z" fill="#000000" fill-opacity="1"/></g></svg>